<svg width="142" height="147" viewBox="0 0 142 147" fill="none" xmlns="http://www.w3.org/2000/svg">
<g opacity="0.1">
<path d="M108.932 91.5222C111.248 94.2636 109.46 96.6906 107.387 98.3265C105.44 99.6944 103.459 99.7349 101.461 99.1118L101.193 98.9845C98.6942 99.434 97.448 97.202 96.2187 95.6335C95.2569 94.1924 93.777 93.1603 92.4224 91.8601C92.4224 91.8601 92.1548 91.7328 91.8873 91.6054C91.1016 91.8871 89.9062 91.646 89.2628 92.3231C89.6895 93.5096 90.509 94.5552 91.4539 95.3327C92.3987 96.1101 92.8254 97.2965 93.645 98.3422C94.197 99.2605 93.1946 101.406 92.033 102.492C90.1027 104.523 87.8541 104.437 85.3379 104.222C84.41 104.109 82.9639 104.404 82.1613 104.022C81.8938 103.895 81.3587 103.64 81.0912 103.513C79.5944 101.817 77.7047 100.262 76.4584 98.0299C76.1739 97.2389 75.6389 96.9842 75.0869 96.066C74.3926 94.7522 73.59 94.3702 72.5537 95.1882C71.5175 96.0062 70.4643 96.1606 69.2688 95.9194C70.6234 97.2197 71.7275 99.0563 73.0821 100.357C74.4367 101.657 75.0056 103.239 75.4493 105.089C75.876 106.275 75.1073 107.221 73.8035 107.911C70.9283 109.165 67.894 109.36 64.7344 109.823C63.2884 110.118 62.2013 108.945 60.9889 108.041C60.7214 107.913 60.0441 107.263 59.2415 106.881C58.4389 106.499 58.0291 105.976 57.7446 105.185C56.3561 102.558 54.0567 100.48 53.1863 97.4437C52.167 98.9253 51.1138 99.0797 49.7761 98.4431C49.241 98.1884 48.4384 97.8065 48.0625 98.6109C47.8119 99.1472 48.6145 99.5292 48.7568 99.9247C50.6634 102.143 52.4447 104.63 54.3513 106.849C54.7611 107.371 55.0287 107.499 55.4384 108.021C56.793 109.322 56.8439 111.313 55.557 112.667C52.5904 115.516 48.7874 116.657 44.5407 115.947C43.6128 115.833 43.3283 115.042 42.7933 114.787C41.1711 113.36 39.2814 111.805 37.6593 110.377C35.2345 108.568 34.2389 105.799 32.4575 103.313C31.9055 102.394 31.7463 101.335 31.1943 100.417C31.0521 100.021 31.0521 100.021 30.517 99.7667C27.7164 98.7617 25.952 96.9386 24.4382 94.5792C22.6569 92.0925 20.3574 90.0148 18.1833 87.6689C16.2936 86.114 14.922 84.1501 13.6758 81.9181C11.8945 79.4313 9.86253 77.481 8.47404 74.8534C7.22779 72.6213 6.24907 70.5166 5.39565 68.1437C4.96894 66.9573 4.54223 65.7708 3.99022 64.8525C2.35113 62.7613 1.37241 60.6566 1.30466 58.002C1.11161 55.6156 -0.259941 53.6517 -1.75679 51.9559C-3.39588 49.8647 -5.4278 47.9143 -7.06689 45.8231C-7.6189 44.9048 -8.5468 44.791 -9.09881 43.8727C-11.5574 40.7359 -11.5168 37.1495 -10.423 33.4088C-10.0471 32.6043 -9.67123 31.7998 -9.56287 30.868C-9.45451 29.9362 -8.81108 29.259 -7.90011 28.7092C-6.18654 28.5413 -4.63214 27.3143 -2.79327 26.8783C-0.168731 26.1606 2.36439 27.0384 5.0228 27.648C7.68122 28.2576 10.4819 29.2626 12.9066 31.0722C14.119 31.977 15.8495 32.4727 17.5631 32.3049C19.937 32.1235 22.1687 31.5466 24.4174 31.6334C27.0589 31.5794 29.575 31.7935 32.2334 32.4031C34.3568 32.758 35.8536 34.4538 37.4758 35.8813C38.8304 37.1816 40.4187 37.2819 42.1492 37.7777C42.6843 38.0323 43.0771 37.8915 43.1855 36.9597C43.1685 36.296 43.6866 35.887 44.364 36.5372C44.6315 36.6645 44.6315 36.6645 44.899 36.7918C46.8632 36.0876 48.9865 36.4426 50.8254 36.0066C52.0039 35.584 53.0741 36.0933 54.1442 36.6026C55.4819 37.2393 56.8195 37.8759 58.1572 38.5125C59.1021 39.2899 60.03 39.4037 60.8156 39.1221C62.1364 39.095 63.4571 39.068 64.6356 38.6455C67.653 37.787 70.2945 37.7329 73.1121 39.4016C74.9848 40.2929 77.1081 40.6479 79.0723 39.9437C82.0897 39.0851 84.6228 39.9629 86.5125 41.5178C89.2048 43.4547 91.7718 45.6597 93.8206 48.2737C95.1922 50.2376 96.9566 52.0607 98.9716 53.3475C101.129 55.0297 102.768 57.1209 104.407 59.2121C106.866 62.349 109.324 65.4858 112.176 68.4818C112.585 69.0046 112.853 69.132 112.87 69.7956C113.74 72.8321 116.04 74.9098 118.214 77.2557C119.711 78.9515 120.547 80.6607 121.651 82.4973C121.793 82.8928 121.936 83.2883 122.203 83.4156C123.131 83.5294 122.881 84.0657 122.362 84.4747C122.237 84.7429 122.112 85.011 122.112 85.011C122.647 85.2657 122.898 84.7294 123.165 84.8567C123.558 84.7159 123.951 84.575 123.968 85.2387C124.11 85.6341 123.592 86.0431 123.324 85.9158C122.522 85.5338 122.539 86.1975 122.413 86.4657C120.859 87.6926 121.929 88.2019 122.749 89.2475C124.245 90.9433 125.742 92.639 127.114 94.6029C128.076 96.044 127.842 97.244 126.145 98.0755C124.181 98.7797 122.217 99.4839 120.236 99.5244C118.522 99.6923 116.917 98.9283 116.081 97.2191C115.244 95.5098 113.764 94.4777 112.535 92.9093C111.431 91.0727 110.361 90.5634 108.932 91.5222ZM60.623 88.5269C59.8373 88.8085 59.4614 89.613 58.9433 90.022C59.729 89.7403 60.3724 89.0632 60.623 88.5269C60.8905 88.6542 61.0158 88.386 61.1411 88.1179C60.8736 87.9905 60.7483 88.2587 60.623 88.5269ZM99.8252 81.616C98.772 81.7703 98.2708 82.8429 97.3598 83.3928C98.1624 83.7747 98.43 83.9021 98.8059 83.0976C99.0565 82.5613 99.5746 82.1523 99.8252 81.616C100.093 81.7433 100.218 81.4751 99.8252 81.616C99.9505 81.3478 99.9505 81.3478 99.8252 81.616ZM118.007 84.6966C118.935 84.8104 119.22 85.6014 119.897 86.2515C120.039 86.647 120.574 86.9017 120.825 86.3654C121.343 85.9564 121.201 85.5609 120.541 85.5744C120.273 85.4471 120.005 85.3197 120.398 85.1789C121.292 83.9654 120.222 83.4561 120.205 82.7925C119.294 83.3423 118.509 83.624 118.007 84.6966C117.865 84.3011 117.865 84.3011 118.007 84.6966C117.74 84.5693 117.74 84.5693 118.007 84.6966ZM42.3327 112.274L42.6002 112.401C42.3327 112.274 42.458 112.005 42.3327 112.274C43.9785 109.451 46.1933 108.211 49.2276 108.016C50.5483 107.989 51.7268 107.566 53.1898 107.935C51.5507 105.843 50.0369 103.484 48.005 101.534C47.1854 100.488 46.3659 99.4424 45.7969 97.8605C45.2449 96.9422 42.5526 95.0053 41.767 95.287C39.8028 95.9912 37.6795 95.6362 35.8406 96.0723C35.4478 96.2131 35.0549 96.3539 34.5368 96.7629C32.3559 99.3307 32.3559 99.3307 33.8866 102.354L34.0289 102.749C35.2582 104.318 35.7018 106.168 36.9311 107.736C38.8208 109.291 40.3177 110.987 42.3327 112.274ZM80.6877 46.2849C80.9553 46.4122 80.9553 46.4122 80.6877 46.2849C80.9383 45.7486 81.1889 45.2123 81.172 44.5486C81.1551 43.885 81.4057 43.3487 81.9407 43.6033C82.4758 43.858 82.3505 44.1261 82.0999 44.6624C81.8662 45.8624 81.7579 46.7942 81.5242 47.9942C81.2736 48.5305 81.8087 48.7851 82.2015 48.6443C82.4691 48.7716 82.5944 48.5035 82.4521 48.108C82.5774 47.8398 82.5774 47.8398 82.7027 47.5717C82.9533 47.0353 82.5266 45.8489 83.5967 46.3582C84.3994 46.7402 83.6306 47.6855 83.5053 47.9536C82.8788 49.2944 83.1633 50.0854 84.3757 50.9902C84.6263 50.4539 84.484 50.0584 84.7346 49.5221C84.5924 49.1266 84.5755 48.4629 85.5034 48.5767C86.1637 48.5632 85.7878 49.3677 85.9301 49.7632C85.5711 51.2313 85.0869 52.9676 86.9596 53.8589C87.2102 53.3225 87.3186 52.3907 87.3016 51.7271C87.4269 51.4589 87.41 50.7953 87.9451 51.0499C88.3379 50.9091 88.3548 51.5727 88.2295 51.8409C88.1042 52.1091 88.2465 52.5045 87.9959 53.0409C87.1188 54.918 87.2949 56.6408 88.5242 58.2092C88.7579 57.0092 89.1338 56.2047 89.3674 55.0048C89.618 54.4684 89.618 54.4684 90.0109 54.3276C90.6712 54.3141 90.8135 54.7096 90.5629 55.2459C90.0617 56.3185 90.3631 57.7731 89.2015 58.8593C89.0762 59.1275 89.0762 59.1275 89.0762 59.1275C89.486 59.6503 89.6452 60.7094 90.4478 61.0914C90.607 62.1505 91.4096 62.5325 92.3544 63.3099C92.5881 62.11 93.0893 61.0373 93.3229 59.8373C93.5735 59.301 93.6988 59.0329 93.9663 59.1602C94.6267 59.1467 94.3761 59.683 94.2508 59.9512C94.1425 60.883 94.0341 61.8148 93.5329 62.8874C93.0317 63.96 93.1909 65.0192 94.1357 65.7966C94.1357 65.7966 94.0104 66.0648 94.4033 65.9239L94.5286 65.6558C94.9045 64.8513 95.1381 63.6513 95.514 62.8469C95.6393 62.5787 95.6224 61.9151 96.1574 62.1697C96.6925 62.4244 96.5672 62.6925 96.3166 63.2288C95.9407 64.0333 95.9577 64.697 95.5818 65.5014C95.3312 66.0378 95.0806 66.5741 95.0975 67.2377C95.934 68.947 97.1633 70.5154 98.2673 72.352C98.3587 70.7565 98.7177 69.2884 99.3442 67.9476C99.4695 67.6794 99.4526 67.0158 99.9876 67.2705C100.523 67.5251 100.397 67.7933 100.147 68.3296C99.7878 69.7977 99.5542 70.9977 98.9277 72.3385C98.5518 73.1429 98.5687 73.8066 98.9954 74.993C99.605 72.9886 100.482 71.1115 101.234 69.5025C101.359 69.2344 101.075 68.4434 101.61 68.698C102.145 68.9527 102.287 69.3482 102.036 69.8845C101.285 71.4934 100.8 73.2297 100.049 74.8387C99.1546 76.0522 99.8319 76.7023 100.384 77.6206C100.526 78.0161 100.794 78.1434 101.187 78.0026L101.437 77.4662C101.921 75.7299 102.263 73.5982 102.748 71.8619C102.998 71.3256 103.374 70.5211 103.625 69.9848C103.75 69.7166 104.143 69.5758 104.41 69.7031C104.945 69.9578 104.553 70.0986 104.302 70.6349C104.051 71.1712 103.926 71.4394 103.676 71.9757C103.066 73.9802 102.724 76.1119 102.24 77.8482C101.989 78.3845 101.739 78.9208 101.881 79.3163C102.558 79.9665 102.717 81.0256 103.52 81.4076C104.322 81.7895 104.465 82.185 104.482 82.8486C104.874 82.7078 105 82.4397 105.125 82.1715C105.752 80.8307 106.111 79.3626 106.737 78.0218C106.988 77.4855 107.238 76.9491 108.041 77.3311C108.576 77.5857 108.058 77.9947 107.807 78.5311L107.682 78.7992C106.93 80.4082 106.856 82.6673 105.301 83.8943C105.301 83.8943 104.908 84.0351 105.176 84.1624C105.853 84.8125 105.352 85.8852 106.029 86.5353C106.707 87.1855 106.456 87.7218 105.545 88.2716C106.49 89.0491 107.401 88.4992 108.329 88.613C109.257 88.7268 109.775 88.3178 109.348 87.1314C109.223 87.3996 109.223 87.3996 109.223 87.3996C109.098 87.6677 108.579 88.0767 108.312 87.9494C108.044 87.8221 108.295 87.2857 108.42 87.0176C108.796 86.2131 109.565 85.2678 109.941 84.4633C110.066 84.1952 110.317 83.6588 110.852 83.9135C111.387 84.1681 111.404 84.8318 111.011 84.9726C110.886 85.2408 110.493 85.3816 110.902 85.9044C112.064 84.8183 113.226 83.7321 114.387 82.6459C114.905 82.237 115.423 81.828 115.833 82.3508C116.653 83.3964 117.029 82.5919 117.279 82.0556C117.797 81.6466 118.316 81.2376 118.976 81.2241C117.337 79.1328 115.572 77.3098 113.933 75.2185C112.579 73.9183 112.528 71.9274 111.173 70.6271C108.447 67.3629 105.721 64.0988 103.12 60.5665C101.481 58.4752 99.5744 56.2567 97.2919 54.8426C95.812 53.8105 94.4573 52.5103 93.3533 50.6737C92.6591 49.3599 91.572 48.187 90.2343 47.5503C89.4317 47.1684 88.6122 46.1228 87.9349 45.4726C85.3509 42.6039 81.7477 41.2169 78.2291 43.1481C79.157 43.2619 79.0486 44.1937 79.7259 44.8438L79.8512 44.5757C80.1018 44.0393 80.3524 43.503 80.8875 43.7577C81.4226 44.0123 80.9045 44.4213 81.0467 44.8168C80.6539 44.9576 80.6708 45.6213 80.6877 46.2849ZM88.0063 84.5138C88.1655 85.5729 88.0571 86.5047 88.2163 87.5638L88.4838 87.6911C89.4862 85.5459 90.4886 83.4006 91.491 81.2553C93.0962 82.0192 91.132 82.7234 91.684 83.6417C92.4697 83.36 92.8456 82.5556 93.3807 82.8102C93.9157 83.0649 94.041 82.7967 94.4339 82.6559C95.2026 81.7105 96.2389 80.8926 96.8823 80.2154C97.2751 80.0746 97.2582 79.4109 97.7933 79.6656C98.203 80.1884 97.6849 80.5974 97.5596 80.8655C96.9162 81.5427 96.0052 82.0925 95.2365 83.0378L95.1112 83.306L95.3787 83.4333C95.9138 83.688 96.1644 83.1516 96.2897 82.8835C97.0584 81.9382 97.9694 81.3883 98.6128 80.7112C99.1309 80.3022 99.9166 80.0205 100.076 81.0796C99.9505 81.3478 100.218 81.4751 100.343 81.207C100.469 80.9388 100.861 80.798 100.594 80.6706C100.326 80.5433 100.184 80.1478 100.184 80.1478C98.9718 79.2431 98.1522 78.1974 97.5833 76.6155C96.6046 74.5108 96.0187 72.2652 94.6471 70.3013C93.2756 68.3374 92.2969 66.2326 90.8 64.5369C88.6258 62.191 87.1121 59.8316 85.8489 56.9359C85.2799 55.354 84.3181 53.9129 83.2311 52.74C81.0569 50.3941 79.1503 48.1755 77.8871 45.2798C77.4434 43.4297 76.2141 41.8613 73.9655 41.7745C73.3051 41.7881 72.8953 41.2653 72.3603 41.0106C71.2901 40.5013 70.0947 40.2602 69.0415 40.4145C66.7928 40.3277 64.7034 41.3001 62.4717 41.8769C65.2893 43.5457 66.9453 46.3005 68.6013 49.0554C68.818 47.1918 69.4445 45.851 70.3385 44.6375C70.4638 44.3694 70.7144 43.833 71.2495 44.0877C71.7846 44.3423 71.534 44.8787 71.2834 45.415C70.7822 46.4876 70.281 47.5603 69.7798 48.6329C68.8858 49.8464 69.1872 51.301 70.0067 52.3466C70.5587 53.2649 71.253 54.5787 72.0725 55.6243C72.2148 56.0197 72.7668 56.938 73.2849 56.529C73.6777 56.3882 73.9283 55.8519 73.9114 55.1882C74.2873 54.3838 74.7885 53.3111 75.1644 52.5066C75.2897 52.2385 75.5403 51.7022 76.0754 51.9568C76.6104 52.2115 76.0923 52.6205 75.967 52.8886C75.7164 53.4249 75.608 54.3567 75.3574 54.8931C74.8562 55.9657 74.355 57.0383 73.4441 57.5882C73.8539 58.111 74.2636 58.6338 74.5481 59.4247C74.924 58.6203 74.9071 57.9566 75.1577 57.4203C75.5335 56.6158 75.7672 55.4159 76.4106 54.7387C76.5359 54.4705 76.9288 54.3297 77.1963 54.457C77.4638 54.5844 77.3385 54.8525 77.2132 55.1207C76.5868 56.4615 75.9603 57.8023 75.3338 59.1431C75.0832 59.6794 74.8156 59.5521 74.1553 59.5656C74.8326 60.2157 74.9918 61.2748 75.7944 61.6568C76.6884 60.4433 76.6545 59.116 77.281 57.7753C77.4063 57.5071 77.3894 56.8434 77.9244 57.0981C78.4595 57.3527 78.3342 57.6209 78.3511 58.2845C78.2428 59.2163 78.0091 60.4163 77.2404 61.3616C76.4717 62.3069 76.7561 63.0979 77.701 63.8754C78.3275 62.5346 78.6864 61.0664 79.3129 59.7256C79.4382 59.4575 79.4213 58.7938 79.9564 59.0485C80.4914 59.3031 80.3661 59.5713 80.2408 59.8395C79.8649 60.6439 79.7566 61.5757 79.3807 62.3802C77.9685 64.0027 78.5375 65.5846 79.6245 66.7576C79.8921 66.8849 79.7668 67.153 79.7668 67.153C80.3188 68.0713 80.6033 68.8623 81.6734 69.3716C82.3846 71.349 83.3633 73.4537 84.9855 74.8813C85.805 75.9269 86.1978 75.7861 87.0919 74.5726C87.4678 73.7682 87.8437 72.9637 88.2196 72.1592C88.3449 71.891 88.863 71.482 89.1305 71.6094C89.6656 71.864 89.415 72.4003 89.2897 72.6685C88.7885 73.7411 88.2873 74.8138 87.3763 75.3636C85.9472 76.3224 86.3739 77.5089 86.926 78.4272C87.3527 79.6136 87.5118 80.6727 87.7963 81.4637C87.8302 82.791 87.7218 83.7228 88.0063 84.5138ZM44.5841 45.1645C44.4588 45.4327 44.4588 45.4327 44.7264 45.56C46.4908 47.3831 47.3442 49.756 48.5904 51.988C49.8367 54.2201 50.6901 56.593 51.6688 58.6977C52.0955 59.8842 53.3079 60.789 53.7346 61.9754C54.7133 64.0802 55.5498 65.7894 56.9214 67.7533C57.3312 68.2761 57.7409 68.7989 58.1507 69.3217C59.8067 72.0766 61.5881 74.5633 63.6369 77.1774C66.0955 80.3142 69.2146 83.4375 69.4584 87.8149C69.6007 88.2103 69.6176 88.874 70.278 88.8605C70.9383 88.847 70.6877 89.3833 70.1696 89.7923C69.2586 90.3421 68.3646 91.5556 67.4536 92.1054C66.5427 92.6553 67.4875 93.4327 67.2369 93.969C67.1116 94.2372 67.7889 94.8873 68.1818 94.7465C69.77 94.8468 71.3583 94.9471 72.6452 93.5928C71.023 92.1652 71.023 92.1652 69.4686 93.3922C69.3433 93.6603 69.0758 93.533 68.9505 93.8012C68.5577 93.942 68.4324 94.2102 67.8973 93.9555C67.4875 93.4327 67.8803 93.2919 68.2732 93.151C69.4517 92.7285 69.4009 90.7376 70.8469 90.4424C70.9553 89.5106 71.3312 88.7061 71.9746 88.029C72.0999 87.7608 72.2252 87.4927 71.9577 87.3653C71.4226 87.1107 71.5479 86.8425 71.6732 86.5744C72.1744 85.5017 72.6756 84.4291 73.1768 83.3564C73.3021 83.0883 73.2851 82.4246 73.8202 82.6793C74.3553 82.9339 74.1047 83.4703 73.9794 83.7384C73.6035 84.5429 73.2276 85.3474 72.9939 86.5473C73.9049 85.9975 74.423 85.5885 75.0665 84.9114C75.4593 84.7705 75.5846 84.5024 76.1197 84.757C76.5294 85.2798 76.6547 85.0116 77.0476 84.8708C77.5657 84.4618 78.2091 83.7847 78.9948 83.503C79.3876 83.3621 79.9058 82.9532 80.048 83.3486C80.7253 83.9988 81.2434 83.5898 81.7616 83.1808C82.1544 83.0399 82.5472 82.8991 82.6895 83.2946C82.8317 83.6901 82.4389 83.8309 82.3136 84.0991C81.4026 84.6489 80.4916 85.1987 79.8482 85.8759C80.3833 86.1305 80.9014 85.7215 81.0267 85.4534C81.9377 84.9035 82.5811 84.2264 83.6174 83.4084C84.0102 83.2676 84.2608 82.7312 84.7959 82.9859C85.331 83.2405 84.5453 83.5222 84.6875 83.9177C85.0803 83.7768 85.5985 83.3679 85.9913 83.227C86.3841 83.0862 86.5094 82.818 86.3672 82.4225C86.0658 80.9679 85.6221 79.1178 85.3207 77.6632C84.552 78.6085 83.8916 78.6221 84.1422 78.0857C84.5012 76.6176 83.2888 75.7128 82.7368 74.7945C80.5118 70.4577 78.0363 66.6573 75.2932 62.7295C73.9047 60.1019 72.1233 57.6152 70.342 55.1285C68.8282 52.7691 67.565 49.8734 66.0513 47.514C63.5757 43.7135 60.5989 40.9857 56.5859 39.0758C54.1781 37.9299 51.8041 38.1113 49.1627 38.1654C48.1095 38.3197 47.3238 38.6014 46.3959 38.4876C45.0751 38.5146 44.005 38.0053 42.8434 39.0914C42.7181 39.3596 42.1831 39.105 41.5227 39.1185C41.1299 39.2593 40.3273 38.8773 39.5246 38.4954C40.3442 39.541 40.6287 40.332 41.306 40.9821C42.2678 42.4232 43.2295 43.8643 44.5841 45.1645ZM20.6245 38.3509C20.4992 38.6191 20.4992 38.6191 20.6245 38.3509C20.7668 38.7464 20.8921 38.4783 20.6245 38.3509C21.0004 37.5465 21.3763 36.742 21.7522 35.9375C21.8775 35.6693 22.2534 34.8649 22.7885 35.1195C23.3236 35.3742 23.073 35.9105 22.8224 36.4468C22.3212 37.5194 21.9622 38.9876 21.7286 40.1875C22.1045 39.383 22.3551 38.8467 22.7309 38.0422C22.8562 37.7741 23.2491 37.6332 23.5166 37.7606C23.7841 37.8879 23.6588 38.156 23.5336 38.4242C23.1577 39.2287 23.1746 39.8923 22.7987 40.6968C22.1722 42.0376 22.1722 42.0376 23.5099 42.6742C23.6013 41.0788 23.9603 39.6107 24.8543 38.3972C24.9796 38.129 25.1049 37.8609 25.3724 37.9882C25.64 38.1155 25.7822 38.511 25.6569 38.7792C25.4063 39.3155 25.0304 40.12 25.0473 40.7836C24.939 41.7154 24.4378 42.788 24.597 43.8472C24.7223 43.579 24.8476 43.3108 24.9729 43.0427C25.2235 42.5064 24.922 41.0518 25.8499 41.1656C26.6526 41.5475 25.8838 42.4928 25.7755 43.4247C25.6671 44.3565 25.3996 44.2291 26.3444 45.0066C26.3105 43.6793 27.3468 42.8613 27.5805 41.6613C27.8311 41.125 27.6888 40.7295 28.2239 40.9842C28.759 41.2388 28.9012 41.6343 28.6506 42.1706C28.1494 43.2433 27.7735 44.0478 27.5398 45.2477C27.164 46.0522 26.7881 46.8567 27.7329 47.6341C27.7329 47.6341 27.7329 47.6341 27.8751 48.0296L28.0004 47.7615C28.3763 46.957 28.3594 46.2933 28.7353 45.4889C28.8606 45.2207 28.9859 44.9525 29.521 45.2072C30.056 45.4618 29.6632 45.6027 29.8054 45.9981C29.4295 46.8026 29.4465 47.4663 29.0706 48.2707C28.6947 49.0752 28.8369 49.4707 29.2467 49.9935C29.6226 49.189 29.4634 48.1299 30.2321 47.1846C30.3574 46.9164 30.608 46.3801 31.1431 46.6348C31.6782 46.8894 31.4276 47.4257 31.3023 47.6939C30.8011 48.7665 30.835 50.0938 30.3338 51.1665C30.0832 51.7028 30.1001 52.3664 30.9027 52.7484C31.2786 51.9439 31.387 51.0121 31.7629 50.2076C31.8882 49.9395 32.0135 49.6713 32.4063 49.5305C33.0667 49.517 32.8161 50.0533 32.9583 50.4488C32.5824 51.2532 32.5993 51.9169 32.2235 52.7214C31.7223 53.794 31.4886 54.994 32.701 55.8987C33.2022 54.8261 33.3105 53.8943 33.8117 52.8217C33.937 52.5535 34.0623 52.2853 34.5974 52.54C34.8649 52.6673 35.0072 53.0628 34.8819 53.3309C34.6313 53.8673 34.2554 54.6718 34.2723 55.3354C33.9134 56.8035 33.6797 58.0035 34.3739 59.3173L34.6415 59.4446L34.7668 59.1764C35.0004 57.9765 35.1088 57.0446 35.61 55.972C35.7353 55.7039 35.593 55.3084 35.9859 55.1675C36.6462 55.154 36.7885 55.5495 36.5379 56.0858C36.4295 57.0176 36.0536 57.8221 36.0706 58.4857C36.2297 59.5449 35.0682 60.631 36.1553 61.804C36.03 62.0721 36.2975 62.1994 36.565 62.3268C36.9579 62.1859 36.6903 62.0586 36.5481 61.6631C36.5142 60.3358 36.6056 58.7404 37.2321 57.3996C37.4827 56.8633 37.7333 56.327 38.5359 56.7089C39.071 56.9636 38.5529 57.3726 38.3023 57.9089C37.5505 59.5178 37.3338 61.3815 37.7774 63.2315C38.1533 62.4271 38.4039 61.8907 38.5123 60.9589C38.6376 60.6908 38.8882 60.1545 39.4232 60.4091C39.9583 60.6638 39.5655 60.8046 39.7077 61.2001C39.4571 61.7364 39.5993 62.1319 39.3487 62.6682C38.9898 64.1363 37.9705 65.618 38.9322 67.0591C38.9322 67.0591 38.8069 67.3272 39.0745 67.4545L39.1998 67.1864C39.4334 65.9864 39.6671 64.7865 39.9008 63.5865C40.0261 63.3183 40.2767 62.782 40.937 62.7685C41.5974 62.755 40.954 63.4321 41.2215 63.5595C41.506 64.3504 41.1301 65.1549 40.7542 65.9594C40.6458 66.8912 40.1446 67.9638 40.6966 68.8821C40.8219 68.614 41.0725 68.0776 41.1978 67.8095C41.0556 67.414 41.1809 67.1458 41.4484 67.2732C41.716 67.4005 41.9835 67.5278 42.1257 67.9233C42.268 68.3188 42.1427 68.5869 42.0174 68.8551C41.7837 70.0551 41.1572 71.3959 41.7262 72.9778C41.7262 72.9778 41.7262 72.9778 41.6009 73.2459C41.6009 73.2459 41.6009 73.2459 41.7262 72.9778C41.7262 72.9778 41.7262 72.9778 41.4586 72.8505C41.9768 72.4415 41.8345 72.046 41.9598 71.7778C42.0682 70.846 42.1765 69.9142 42.82 69.2371C42.9453 68.9689 42.9283 68.3053 43.4634 68.5599C43.9985 68.8146 43.8732 69.0827 43.8901 69.7464C43.6565 70.9463 43.565 72.5418 43.3314 73.7417C43.223 74.6735 43.2399 75.3372 43.6497 75.86C44.1679 75.451 43.7581 74.9282 43.8834 74.66C44.0087 74.3919 44.134 74.1237 44.4015 74.251C44.669 74.3783 44.5438 74.6465 44.686 75.042C44.5776 75.9738 44.344 77.1738 44.2356 78.1056C44.0019 79.3055 44.2864 80.0965 45.2313 80.8739C45.3227 79.2785 44.2187 77.4419 45.8984 75.9468C46.0237 75.6786 46.0067 75.015 46.8093 75.3969C47.3444 75.6516 47.0938 76.1879 46.9685 76.4561C46.0745 77.6695 46.2337 78.7287 46.2675 80.0559C46.4267 81.1151 46.5859 82.1742 46.0847 83.2468C45.9594 83.515 46.1016 83.9105 46.3692 84.0378C46.8704 82.9652 46.9787 82.0334 47.2124 80.8334C47.3377 80.5652 47.1954 80.1698 47.5883 80.0289C47.8558 80.1562 48.1233 80.2836 48.2656 80.679C48.1572 81.6109 48.4417 82.4018 48.3333 83.3336C47.7068 84.6744 47.7407 86.0017 48.435 87.3155C48.5772 87.711 47.6662 88.2608 48.7364 88.7701C49.3629 87.4293 49.9894 86.0885 50.3483 84.6204C50.5989 84.0841 50.8495 83.5477 51.3846 83.8024C52.0449 83.7889 51.4015 84.466 51.5438 84.8615C51.4693 87.1206 49.8065 89.2794 50.9275 91.7796C50.9275 91.7796 50.8022 92.0478 50.6769 92.3159C50.5516 92.5841 50.284 92.4568 50.0165 92.3294C49.6067 91.8066 48.8041 91.4247 48.3943 90.9019C47.3242 90.3926 46.5047 89.3469 46.2032 87.8923C45.4751 85.2513 44.3542 82.7511 43.1079 80.519C41.3097 77.3686 40.0295 73.8093 38.3566 70.3908C37.1103 68.1587 36.5075 65.2495 34.8684 63.1583C33.7813 61.9853 33.2124 60.4034 32.5181 59.0896C30.3101 55.4165 28.6202 51.3343 26.0193 47.802C25.6096 47.2792 25.1998 46.7564 24.9322 46.6291C23.7199 45.7243 22.5075 44.8195 21.8132 43.5057C20.4248 40.8782 18.3759 38.2642 16.5946 35.7774C15.3483 33.5454 14.2782 33.0361 13.208 32.5268C10.2482 30.4626 7.18002 29.3302 3.5937 28.6068C1.20282 28.1245 -1.18806 27.6423 -3.79566 29.0236C-4.70662 29.5734 -5.49229 29.8551 -6.40326 30.4049C-8.36743 31.1091 -8.74332 31.9136 -8.81781 34.1727C-8.29968 33.7637 -8.31662 33.1001 -7.79848 32.6911C-7.94072 32.2956 -7.42259 31.8866 -7.28035 32.2821C-7.13811 32.6775 -7.26341 32.9457 -7.38871 33.2139C-8.28274 34.4273 -8.90923 35.7681 -9.53573 37.1089C-10.1622 38.4497 -9.86081 39.9043 -9.5594 41.359C-9.0582 40.2863 -9.07514 39.6227 -8.96678 38.6909C-8.767 36.1636 -7.48013 34.8093 -5.5329 33.4415C-5.14007 33.3006 -5.01477 33.0325 -4.605 33.5553C-4.19522 34.0781 -4.58806 34.2189 -4.98089 34.3598C-6.01716 35.1778 -5.98328 36.5051 -6.60978 37.8459C-6.73507 38.114 -6.71814 38.7777 -6.84343 39.0458C-7.57829 41.3184 -7.65277 43.5775 -5.88839 45.4006C-5.88839 45.4006 -5.74615 45.7961 -5.62085 45.5279C-5.62085 45.5279 -5.62085 45.5279 -5.76309 45.1324C-6.0645 43.6778 -5.97308 42.0824 -5.61412 40.6142C-5.25516 39.1461 -5.03844 37.2825 -3.60934 36.3237C-3.21651 36.1828 -2.96591 35.6465 -2.55614 36.1693C-2.4139 36.5648 -2.5392 36.833 -2.93203 36.9738C-4.84539 39.6689 -5.17047 42.4643 -4.30011 45.5009C-4.14094 46.56 -4.40847 46.4327 -5.33638 46.3189C-4.53377 46.7008 -4.51683 47.3645 -3.71423 47.7464C-3.73117 47.0828 -3.87341 46.6873 -3.62281 46.151C-3.53138 44.5556 -3.43996 42.9601 -2.2784 41.874C-2.1531 41.6058 -1.7772 40.8013 -1.36743 41.3241C-0.832361 41.5788 -1.35049 41.9878 -1.60109 42.5241C-2.47818 44.4012 -2.6949 46.2648 -2.37655 48.3831C-1.62476 46.7741 -1.14051 45.0378 -0.656249 43.3015C-0.53095 43.0334 -0.280352 42.4971 -0.0128166 42.6244C0.522254 42.879 0.271657 43.4153 0.146358 43.6835C-0.337899 45.4198 -0.822157 47.1561 -1.30641 48.8924C-1.54007 50.0923 -1.64843 51.0241 -0.310756 51.6607C-0.771341 49.147 -0.036488 46.8744 0.430831 44.4745C0.664491 43.2745 1.45016 42.9928 2.36113 42.443C2.75396 42.3022 3.14679 42.1613 3.28903 42.5568C3.43127 42.9523 3.30597 43.2205 2.91313 43.3613C2.395 43.7703 2.00217 43.9111 2.0191 44.5748C0.657757 48.1882 0.0820799 51.5199 1.89728 55.3339C2.14788 54.7976 2.27318 54.5294 2.39847 54.2613C2.99109 51.5932 4.52855 49.7025 6.60108 48.0666C6.99392 47.9257 7.11921 47.6576 7.65428 47.9122C7.79652 48.3077 7.67122 48.5758 7.27839 48.7167C7.02779 49.253 6.63496 49.3938 6.11682 49.8028C4.43713 51.298 3.56004 53.1751 3.21802 55.3069C3.10966 56.2387 2.85906 56.775 2.7507 57.7068C2.3748 58.5113 2.51704 58.9068 3.19435 59.5569C3.31965 59.2887 3.31965 59.2887 3.44495 59.0206C3.8039 57.5524 4.55569 55.9435 5.18219 54.6027C5.43279 54.0664 5.82562 53.9255 6.09315 54.0529C6.62822 54.3075 6.37763 54.8438 6.25233 55.112C6.00173 55.6483 5.75114 56.1846 5.50054 56.7209C4.74875 58.3299 4.12225 59.6707 4.17307 61.6616C4.29836 61.3935 4.29836 61.3935 4.42366 61.1253C4.87405 58.0617 7.33941 56.2849 9.00217 54.1261C9.12747 53.858 9.6456 53.449 9.78784 53.8445C10.3229 54.0991 9.80477 54.5081 9.67947 54.7763C9.17828 55.8489 8.40955 56.7942 7.37329 57.6122C5.05016 59.7845 5.26015 62.8346 5.2026 65.7573C5.5785 64.9528 5.68686 64.021 5.93745 63.4847C6.42171 61.7484 7.44104 60.2668 8.19283 58.6578C8.44343 58.1215 8.96156 57.7125 9.49663 57.9671C10.2992 58.3491 9.38827 58.899 9.26297 59.1671C7.47491 61.5941 6.757 64.5303 6.03908 67.4666C5.91378 67.7347 5.66319 68.271 6.07296 68.7938C6.44885 67.9894 6.55721 67.0576 6.66558 66.1258C6.99066 63.3303 8.38588 61.0442 9.92334 59.1536C10.4415 58.7446 10.8174 57.9401 11.2271 58.4629C11.9044 59.1131 10.9935 59.6629 10.7429 60.1992C9.20542 62.0898 8.20303 64.2351 7.73572 66.635C7.50206 67.835 8.071 69.4169 6.37437 70.2484L6.51661 70.6439C6.80108 71.4349 7.08555 72.2259 7.63756 73.1442C7.76286 72.876 7.76286 72.876 7.88816 72.6078C7.8204 69.9533 9.21563 67.6671 10.3433 65.2537C10.5939 64.7174 11.112 64.3084 11.5049 64.1676C11.6302 63.8994 12.023 63.7586 12.1652 64.154C12.4328 64.2814 12.3075 64.5495 12.1822 64.8177C11.5388 65.4948 11.2882 66.0312 10.9123 66.8356C9.90987 68.9809 9.03278 70.858 8.69076 72.9898C8.7077 73.6535 8.4571 74.1898 8.74158 74.9807C10.1301 77.6083 12.5548 79.4178 13.9433 82.0454C14.3531 82.5682 14.37 83.2318 15.1726 83.6138C15.281 82.682 15.3894 81.7502 15.3724 81.0866C15.1963 79.3638 15.6806 77.6275 16.4323 76.0185C16.6829 75.4822 16.8082 75.2141 17.3433 75.4687C17.8784 75.7234 17.3603 76.1323 17.5025 76.5278C16.8929 78.5323 16.6762 80.3959 16.4595 82.2595C16.4764 82.9231 16.9031 84.1096 15.7246 84.5321C15.3318 84.6729 15.5993 84.8003 15.5993 84.8003C16.5611 86.2413 17.5229 87.6824 19.1281 88.4464C18.7928 85.6645 19.5277 83.3919 20.6554 80.9784C20.7807 80.7103 21.0313 80.174 21.5663 80.4286C21.8339 80.5559 21.9761 80.9514 21.7255 81.4877C21.4749 82.0241 21.2243 82.5604 20.9737 83.0967C20.0966 84.9738 20.0221 87.2329 20.3405 89.3512C20.4997 90.4103 21.9626 90.7787 22.5146 91.697C22.7822 91.8244 22.7822 91.8243 22.9244 92.2198C22.9244 92.2198 22.7991 92.488 23.192 92.3472L23.3173 92.079C22.8567 89.5653 23.1987 87.4335 24.3264 85.0201C24.577 84.4837 24.4178 83.4246 25.2204 83.8066C25.7555 84.0612 25.3796 84.8657 25.129 85.402C24.3941 87.6746 23.9268 90.0746 24.3874 92.5883C24.5296 92.9838 24.0115 93.3928 24.4213 93.9156C25.7928 95.8795 27.4319 97.9707 29.5722 98.9893C30.1073 99.2439 30.5001 99.1031 30.7507 98.5668C31.77 97.0852 33.0569 95.7308 34.3437 94.3765C35.1125 93.4312 36.0234 92.8814 37.0597 92.0634C37.4525 91.9226 37.8454 91.7817 37.9876 92.1772C38.3974 92.7 37.737 92.7135 37.6117 92.9817C36.826 93.2633 36.1826 93.9405 35.4139 94.8858C36.3418 94.9996 37.1275 94.718 37.6456 94.309C38.8072 93.2228 40.111 92.5321 41.1472 91.7141C41.54 91.5733 42.0582 91.1643 42.2004 91.5598C42.3427 91.9553 42.3427 91.9553 42.7355 91.8144C43.1283 91.6736 43.3789 91.1373 43.914 91.3919C44.3068 91.2511 44.5744 91.3784 44.7166 91.7739C44.8588 92.1694 44.466 92.3102 44.0732 92.4511C43.1453 92.3372 42.7694 93.1417 42.2512 93.5507C42.1259 93.8189 41.4656 93.8324 41.8753 94.3552C42.1429 94.4825 42.8202 95.1327 43.0708 94.5963C43.1961 94.3282 43.4467 93.7919 43.8395 93.651C44.4829 92.9739 44.8588 92.1694 45.6445 91.8877C46.1626 91.4787 46.4302 91.606 46.8399 92.1288C46.9822 92.5243 47.1244 92.9198 46.7316 93.0607C45.1433 92.9604 44.6591 94.6966 43.6228 95.5146C44.6929 96.0239 45.6378 96.8014 46.3151 97.4515C46.7249 97.9743 47.1177 97.8335 47.3852 97.9608C48.9735 98.0611 48.9735 98.0611 50.3857 96.4386C49.8506 96.184 49.6 96.7203 49.0819 97.1293C48.689 97.2701 48.4384 97.8065 48.2962 97.411C47.8864 96.8882 48.2792 96.7473 48.6721 96.6065C49.1902 96.1975 49.8336 95.5203 49.5492 94.7294C49.5492 94.7294 49.6745 94.4612 49.7998 94.193C50.7107 93.6432 50.8191 92.7114 51.4625 92.0343C52.2313 91.0889 53 90.1436 54.0363 89.3256C54.4291 89.1848 54.9472 88.7758 55.357 89.2986C55.7668 89.8214 55.3739 89.9622 54.8558 90.3712C54.3207 90.1166 53.552 91.0619 52.8002 92.6709C53.5859 92.3892 54.2462 92.3757 54.6221 91.5712C55.1233 90.4986 55.8921 89.5532 56.9283 88.7353C57.4465 88.3263 58.073 86.9855 59.16 88.1584C59.16 88.1584 59.5529 88.0176 59.6782 87.7494C60.071 87.6086 60.3216 87.0722 60.7144 86.9314C61.1073 86.7906 61.3579 86.2543 61.7676 86.7771C62.3027 87.0317 61.7846 87.4407 61.6593 87.7089C61.3917 87.5815 61.2664 87.8497 61.1411 88.1179C61.2834 88.5133 61.534 87.977 61.534 87.977C61.9268 87.8362 62.4449 87.4272 62.8378 87.2863C63.2306 87.1455 63.7487 86.7365 63.891 87.132C64.3008 87.6548 63.5151 87.9365 63.1222 88.0773C62.2113 88.6272 61.175 89.4451 60.5316 90.1223C61.8693 90.7589 61.6017 90.6316 62.638 89.8136C63.6743 88.9956 64.8358 87.9095 65.8721 87.0915C66.2649 86.9506 66.7831 86.5416 66.9253 86.9371C67.3351 87.4599 66.5494 87.7416 66.1566 87.8824C64.8528 88.5731 63.8165 89.3911 63.0478 90.3364C63.3153 90.4637 63.5828 90.5911 63.7081 90.3229C65.0119 89.6322 66.0313 88.1506 67.2098 87.7281L67.3351 87.4599C66.9084 86.2735 67.142 85.0735 66.3225 84.0279C63.5624 79.4364 59.7661 75.663 57.0061 71.0715C55.4923 68.7122 53.4604 66.7618 52.7322 64.1207C52.4478 63.3297 52.1633 62.5388 51.486 61.8886C50.2567 60.3202 49.4202 58.611 48.5837 56.9017C47.7303 54.5288 46.6263 52.6922 45.38 50.4602C43.5818 47.3098 41.6582 44.4276 39.4671 41.4181C37.276 38.4086 34.6921 35.5399 30.9635 34.421C27.8953 33.2886 24.4682 33.6244 21.2916 33.4238C19.8456 33.7189 19.3275 34.1279 19.5205 36.5144C19.4122 37.4462 20.2148 37.8281 20.6245 38.3509ZM73.9863 104.72C73.4343 103.802 73.2751 102.743 72.5978 102.093C70.8334 100.27 69.1944 98.1785 67.43 96.3554C65.9331 94.6597 64.8291 92.8231 62.1707 92.2135C60.3149 91.9859 58.8519 91.6174 57.2806 92.1808C55.7092 92.7441 54.4224 94.0985 52.7088 94.2663C53.5283 95.3119 54.3479 96.3575 54.6323 97.1485C55.628 99.9169 57.6599 101.867 59.0484 104.495C59.3329 105.286 60.1355 105.668 60.6706 105.922C61.2056 106.177 61.314 105.245 61.7068 105.104C64.4228 102.791 67.0473 102.074 70.3831 103.333C71.4532 103.843 72.398 104.62 73.9863 104.72ZM72.5944 91.6018C73.397 91.9838 74.0743 92.6339 74.8769 93.0159C77.0341 94.6981 78.155 97.1984 79.6688 99.5577C79.8111 99.9532 79.9533 100.349 80.4714 99.9397C83.5972 98.1494 86.7229 96.359 90.7021 96.9416C90.2923 96.4188 89.7572 96.1642 89.615 95.7687C87.9759 93.6774 87.1225 91.3045 84.9653 89.6223C82.3983 87.4173 78.5613 87.2302 75.5609 88.7524C74.2571 89.443 73.6306 90.7838 72.5944 91.6018ZM108.214 94.4585C107.929 93.6675 107.519 93.1447 107.11 92.6219C105.88 91.0535 104.793 89.8806 103.439 88.5803C102.352 87.4074 101.014 86.7708 99.6762 86.1341C97.5359 85.1155 95.2873 85.0288 92.9472 86.5374C91.5181 87.4963 91.3014 89.3599 92.656 90.6601C94.5457 92.215 96.4354 93.7699 97.8069 95.7338C98.359 96.6521 99.0193 96.6386 99.9303 96.0888C102.646 93.7756 105.254 92.3943 108.214 94.4585ZM125.668 94.8981C125.258 94.3753 125.116 93.9798 124.581 93.7252C123.903 93.0751 123.226 92.4249 122.799 91.2385C122.373 90.052 121.804 88.4701 120.073 87.9743C119.806 87.847 119.538 87.7197 119.396 87.3242C117.364 85.3738 113.652 84.9186 111.312 86.4272C111.187 86.6954 110.919 86.568 111.062 86.9635C111.062 86.9635 111.079 87.6272 111.329 87.0909C111.455 86.8227 111.705 86.2864 111.597 87.2182C111.614 87.8818 111.631 88.5455 112.04 89.0683C112.735 90.382 113.947 91.2868 115.034 92.4598C115.711 93.1099 116.246 93.3645 117.157 92.8147C117.676 92.4057 118.603 92.5195 119.139 92.7742C121.279 93.7928 123.277 94.4159 125.668 94.8981ZM53.5081 110.053C51.2426 109.302 49.1361 109.611 46.9044 110.188C45.8512 110.342 44.815 111.16 44.3138 112.233C43.562 113.842 43.9718 114.365 45.4347 114.733C48.7535 115.329 51.2358 114.216 53.8265 112.171C55.3809 110.944 55.1133 110.817 53.5081 110.053ZM81.4332 101.381C81.8599 102.567 82.6625 102.949 83.7157 102.795C85.304 102.895 86.6248 102.868 87.9455 102.841C89.6591 102.673 90.8206 101.587 91.84 100.105C92.2159 99.301 91.9483 99.1737 91.4133 98.919C88.4704 97.5185 85.7375 99.168 83.2552 100.281C82.4695 100.563 82.3611 101.495 81.4332 101.381ZM73.1092 106.597C71.7716 105.961 70.9689 105.579 70.1663 105.197C67.7585 104.051 65.3846 104.232 63.1867 106.137C62.7939 106.277 62.2758 106.686 62.6856 107.209C62.8278 107.605 63.2376 108.127 63.8979 108.114C66.8069 108.187 69.699 107.597 73.1092 106.597ZM101.143 96.9936C102.623 98.0257 105.389 97.7034 106.944 96.4765C107.462 96.0675 107.32 95.672 106.91 95.1492C105.037 94.2579 102.02 95.1164 101.143 96.9936ZM86.2758 84.018C85.2395 84.836 84.5961 85.5131 83.5598 86.3311C84.2371 86.9813 85.0397 87.3632 85.4495 87.886C86.1268 88.5362 86.5196 88.3953 86.628 87.4635C86.7364 86.5317 86.5772 85.4726 86.2758 84.018ZM122.525 96.0248C121.187 95.3882 119.724 95.0197 118.404 95.0468C118.011 95.1876 117.476 94.933 117.493 95.5966C117.367 95.8648 117.777 96.3876 118.045 96.5149C118.58 96.7695 119.115 97.0242 119.901 96.7425C120.419 96.3335 121.472 96.1792 122.525 96.0248ZM65.1881 91.355C66.9355 92.5144 67.4198 90.7781 68.3307 90.2283C68.7236 90.0875 68.5813 89.692 68.4391 89.2965C68.2969 88.901 67.904 89.0418 67.7787 89.31C66.8677 89.8598 66.099 90.8052 65.1881 91.355ZM87.6067 89.5683C88.4602 91.9412 89.7301 89.9232 90.658 90.037C89.8384 88.9914 88.4093 89.9502 87.6067 89.5683ZM99.6085 83.4796C100.269 83.466 100.428 84.5252 100.804 83.7207C101.055 83.1844 101.573 82.7754 101.698 82.5072C101.823 82.2391 102.216 82.0982 101.949 81.9709C101.806 81.5754 101.413 81.7163 101.288 81.9844C100.645 82.6616 100.127 83.0706 99.6085 83.4796ZM101.088 84.5117C101.356 84.639 101.623 84.7663 101.891 84.8936C102.426 85.1483 102.677 84.612 102.927 84.0756C103.053 83.8075 102.91 83.412 102.643 83.2847C102.108 83.03 101.982 83.2982 101.857 83.5663C101.999 83.9618 101.607 84.1027 101.088 84.5117ZM84.1694 84.3267C83.526 85.0038 82.615 85.5537 81.9716 86.2308L82.2391 86.3581C82.8825 85.681 83.7935 85.1312 84.1694 84.3267ZM39.752 94.0003C41.0727 93.9732 41.4486 93.1688 41.8245 92.3643C41.1811 93.0414 40.663 93.4504 39.752 94.0003ZM42.3427 91.9553C42.3427 91.9553 42.2174 92.2234 42.3427 91.9553C42.2174 92.2234 42.2174 92.2234 42.2174 92.2234C42.2174 92.2234 42.2174 92.2234 42.3427 91.9553C42.4849 92.3508 42.2174 92.2234 42.3427 91.9553ZM82.7366 48.8989C82.7366 48.8989 82.6113 49.1671 82.7366 48.8989C82.6113 49.1671 82.6113 49.1671 82.7366 48.8989C82.6113 49.1671 82.7366 48.8989 82.7366 48.8989ZM-1.84148 48.6377C-1.84148 48.6377 -2.23432 48.7785 -1.84148 48.6377C-2.23432 48.7785 -1.96678 48.9059 -1.84148 48.6377C-1.96678 48.9059 -1.96678 48.9059 -1.84148 48.6377C-1.96678 48.9059 -1.96678 48.9059 -1.84148 48.6377ZM16.3511 83.1913C16.3511 83.1913 16.2089 82.7958 16.3511 83.1913C16.2089 82.7958 16.0836 83.064 16.3511 83.1913C16.0836 83.064 16.0836 83.064 16.3511 83.1913Z" fill="#040404"/>
<path d="M86.0824 84.2075C86.2421 85.2628 86.6706 86.445 86.4355 87.6405C86.3264 88.5689 85.9315 88.7091 85.251 88.0611C84.5704 87.4131 84.0327 87.1592 83.3522 86.5113C84.2679 85.9637 85.0407 85.0221 86.0824 84.2075Z" fill="#040404"/>
<path d="M117.651 84.7715C118.297 84.0964 119.085 83.8157 119.731 83.1406C120.016 83.9295 121.09 84.4378 120.05 85.2533C119.924 85.5207 120.192 85.6477 120.192 85.6477C120.855 85.6345 120.998 86.0289 120.478 86.4367C119.958 86.8444 119.689 86.7173 119.547 86.3229C119.136 85.8013 118.725 85.2798 117.651 84.7715C117.92 84.8986 117.651 84.7715 117.651 84.7715Z" fill="#040404"/>
<path d="M64.9368 91.3545C65.8536 90.8073 66.6273 89.8662 67.5441 89.319C67.6703 89.052 68.0656 88.9119 68.2086 89.3057C68.3517 89.6996 68.6209 89.8265 68.0994 90.2336C67.1826 90.7808 66.6949 92.5095 64.9368 91.3545Z" fill="#040404"/>
<path d="M87.3509 89.7553C88.5469 89.9964 89.7092 88.9109 90.4037 90.224C89.4753 90.1102 88.2046 92.127 87.3509 89.7553Z" fill="#040404"/>
<path d="M99.4293 83.8006C99.9515 83.3939 100.6 82.7205 101.122 82.3138C101.248 82.0471 101.644 81.9072 101.788 82.3008C102.057 82.4276 101.931 82.6944 101.535 82.8343C101.283 83.3678 100.76 83.7745 100.634 84.0413C100.255 84.8415 99.699 83.9275 99.4293 83.8006Z" fill="#040404"/>
<path d="M99.9384 82.0585C99.6858 82.592 99.1636 82.9987 99.0374 83.2654C98.6586 84.0657 98.1192 83.812 97.5798 83.5583C98.2283 82.8849 98.6071 82.0847 99.9384 82.0585C99.6687 81.9317 99.9384 82.0585 99.9384 82.0585Z" fill="#040404"/>
<path d="M100.893 84.8372C101.288 84.6971 101.413 84.4299 101.808 84.2899C102.202 84.1498 102.185 83.4884 102.597 84.0097C102.866 84.1367 103.009 84.531 102.883 84.7981C102.757 85.0653 102.505 85.5996 101.842 85.6126C101.699 85.2184 101.43 85.0913 100.893 84.8372Z" fill="#040404"/>
<path d="M83.9954 84.4978C83.489 85.5637 82.6946 85.8434 82.0442 86.5163L81.7737 86.3896C82.5507 85.4503 83.0745 85.044 83.9954 84.4978Z" fill="#040404"/>
<path d="M39.4893 93.7679C40.4093 93.2216 40.9325 92.8152 41.5822 92.1422C41.2028 92.9419 40.8233 93.7416 39.4893 93.7679Z" fill="#040404"/>
<path d="M60.4146 88.4828C60.0346 89.2822 59.5107 89.6885 58.7161 89.9682C59.3667 89.2954 59.7466 88.496 60.4146 88.4828Z" fill="#040404"/>
<path d="M36.453 61.4537C36.3275 61.7208 36.8649 61.9754 36.4707 62.1151C36.4707 62.1151 36.202 61.9878 36.0588 61.5934C36.3275 61.7208 36.3275 61.7208 36.453 61.4537Z" fill="#040404"/>
<path d="M60.4166 88.4903C60.2725 88.0968 60.5428 88.2238 60.669 87.9573C60.813 88.3508 60.813 88.3508 60.4166 88.4903Z" fill="#040404"/>
<path d="M61.4609 87.6826C61.4609 87.6826 61.2083 88.2158 61.0651 87.8226C61.1914 87.556 61.1914 87.556 61.4609 87.6826C61.5872 87.416 61.4609 87.6826 61.4609 87.6826Z" fill="#040404"/>
<path d="M42.1026 91.748C41.9762 92.014 42.2489 92.1417 42.1026 91.748C41.9762 92.014 41.9762 92.014 41.9762 92.014C41.9762 92.014 41.9762 92.014 42.1026 91.748C41.9762 92.014 42.1026 91.748 42.1026 91.748Z" fill="#040404"/>
<path d="M21.3907 38.4039C21.3907 38.4039 21.2646 38.6717 21.3907 38.4039C20.9969 38.5451 20.9969 38.5451 21.3907 38.4039C21.123 38.2773 21.123 38.2773 21.3907 38.4039Z" fill="#040404"/>
<path d="M28.6353 47.8214L28.5089 48.0874C28.5089 48.0874 28.2362 47.9597 28.6353 47.8214C28.3626 47.6937 28.6353 47.8214 28.6353 47.8214Z" fill="#040404"/>
<path d="M39.0292 66.9658L38.9023 67.2334C38.508 67.3756 38.6349 67.1079 39.0292 66.9658C38.6349 67.1079 39.0292 66.9658 39.0292 66.9658Z" fill="#040404"/>
<path d="M99.6721 81.9412C99.7982 81.6734 99.7982 81.6734 99.6721 81.9412C100.066 81.8 99.9398 82.0679 99.6721 81.9412C99.9398 82.0679 99.6721 81.9412 99.6721 81.9412Z" fill="#040404"/>
<path d="M81.4191 46.5178L81.2924 46.786C81.0254 46.6602 81.0254 46.6602 81.4191 46.5178C81.0254 46.6602 81.0254 46.6602 81.4191 46.5178Z" fill="#040404"/>
<path d="M34.7079 58.9685C34.8495 59.363 34.8495 59.363 34.7079 58.9685C34.8495 59.363 34.5818 59.2364 34.7079 58.9685C34.5818 59.2364 34.5818 59.2364 34.7079 58.9685Z" fill="#040404"/>
<path d="M117.798 85.1513C117.53 85.0247 117.53 85.0247 117.798 85.1513C117.656 84.7568 117.656 84.7568 117.798 85.1513C117.656 84.7568 117.924 84.8835 117.798 85.1513Z" fill="#040404"/>
<path d="M16.258 82.8218C15.9891 82.6939 15.9891 82.6939 16.258 82.8218C15.9891 82.6939 16.1138 82.4274 16.258 82.8218C16.1138 82.4274 16.258 82.8218 16.258 82.8218Z" fill="#040404"/>
<path d="M94.456 65.6318L94.3291 65.8994C93.9347 66.0415 94.0616 65.7739 94.456 65.6318C94.0616 65.7739 94.0616 65.7739 94.456 65.6318Z" fill="#040404"/>
<path d="M23.8757 90.7801C23.8757 90.7801 23.7496 91.0479 23.8757 90.7801C23.4819 90.9213 23.4819 90.9213 23.8757 90.7801C23.608 90.6535 23.608 90.6535 23.8757 90.7801Z" fill="#040404"/>
<path d="M95.3353 83.4437C95.3353 83.4437 95.2106 83.7102 95.3353 83.4437C95.0663 83.3158 95.0663 83.3158 95.3353 83.4437Z" fill="#040404"/>
<path d="M26.6547 90.4924C27.0172 89.0325 28.0463 87.5592 28.4089 86.0993C28.5354 85.8326 28.5184 85.1727 29.0585 85.4259C29.5986 85.6792 29.4721 85.9459 29.3456 86.2125C28.966 87.0125 28.983 87.6724 28.6035 88.4724C27.8444 90.0724 27.7519 91.6589 27.9295 93.3721C28.0731 93.7654 28.3602 94.552 27.6935 94.5654C26.9004 94.8454 27.2799 94.0454 27.1364 93.6522C26.9758 92.5989 26.9418 91.279 25.8615 90.7724C25.5915 90.6458 25.4479 90.2525 25.3044 89.8592C24.7302 88.286 26.3749 84.8195 27.8177 83.8661C28.2142 83.7261 28.3408 83.4595 28.8809 83.7127C29.0244 84.106 28.8979 84.3727 28.7714 84.6394C27.2191 86.5193 26.7301 88.2459 26.6547 90.4924Z" fill="#040404"/>
<path d="M19.1567 75.4032C19.6651 74.3381 20.1734 73.2729 21.0978 72.7266C21.4964 72.5866 22.0222 72.1802 22.1666 72.5728C22.5827 73.0916 22.184 73.2316 21.9298 73.7642C19.9887 76.4408 19.2609 79.3563 19.0762 82.5242C19.2207 82.9167 19.2381 83.5756 18.5679 83.5893C17.8977 83.6031 17.6087 82.818 17.8629 82.2854C18.065 79.7763 18.14 77.5335 19.1567 75.4032Z" fill="#040404"/>
<path d="M14.5086 72.1632C15.5256 70.0331 16.9763 69.0805 17.8837 67.8755C18.0108 67.6092 18.2825 67.7354 18.5541 67.8617C18.8258 67.9879 18.9703 68.3804 18.8432 68.6467C18.4618 69.4454 17.9359 69.8517 17.5545 70.6505C15.8669 72.7944 14.9944 75.317 15.064 77.952C14.9369 78.2183 15.0814 78.6108 14.8097 78.4846C14.4109 78.6246 14.1393 78.4983 13.9947 78.1058C13.5785 77.5871 13.6882 76.6621 13.9425 76.1296C13.7632 74.4196 14.3988 73.0882 14.5086 72.1632Z" fill="#040404"/>
<path d="M16.1311 62.7432C16.5491 63.2611 16.4216 63.5272 15.8937 63.9334C14.4554 65.5439 13.5626 67.4063 12.5423 69.5349C12.0321 70.5991 11.7948 71.7893 11.5574 72.9795C11.4298 73.2456 11.5751 73.6376 10.902 73.6518C10.6292 73.5258 10.484 73.1338 10.6115 72.8677C11.0508 69.1711 12.4361 65.5863 15.3304 63.0234C15.458 62.7573 15.8583 62.6172 16.1311 62.7432Z" fill="#040404"/>
<path d="M13.6865 69.7891C14.0684 68.9905 14.0509 68.3321 14.9771 67.7858C15.3765 67.6457 15.5038 67.3796 15.6487 67.7719C15.9208 67.898 15.7935 68.1642 15.6662 68.4303C14.121 70.9659 13.2474 73.4876 12.9181 76.2616C12.7908 76.5277 12.9356 76.92 12.264 76.934C11.9919 76.8078 11.7197 76.6817 11.847 76.4156C11.6847 75.3648 11.7945 74.4401 12.1764 73.6416C12.8129 72.3107 13.05 71.1199 13.6865 69.7891Z" fill="#040404"/>
<path d="M34.4591 91.9587C33.8077 92.6316 33.5712 93.8238 32.6489 94.3702C32.1243 94.7766 31.7266 94.9166 31.7438 95.5759C31.6169 95.8424 31.4901 96.1088 31.0924 96.2488C30.8215 96.1224 30.6774 95.7295 30.8043 95.4631C31.0407 94.2709 31.4213 93.4716 31.6578 92.2794C31.9114 91.7466 32.0383 91.4801 32.292 90.9473C32.4188 90.6808 32.4188 90.6808 32.5456 90.4144C32.9434 90.2744 33.0874 90.6673 32.9606 90.9337C32.9778 91.593 33.3755 91.453 33.6292 90.9201C33.7561 90.6537 33.7388 89.9944 34.2806 90.2473C34.9665 90.893 34.9837 91.5523 34.4591 91.9587Z" fill="#040404"/>
<path d="M23.4579 80.7587C23.8569 80.6186 23.9667 79.6938 24.4929 79.2875C24.892 79.1475 25.0192 78.8812 25.1638 79.2736C25.4357 79.3998 25.3085 79.6661 25.1813 79.9323C23.8918 81.9359 22.8742 84.0657 23.0712 86.4341C22.944 86.7003 22.8168 86.9666 22.8168 86.9666C22.4178 87.1066 22.2731 86.7142 22.4003 86.448C21.9664 85.2707 22.3305 83.8134 22.5675 82.6223C22.8219 82.0898 23.0763 81.5573 23.4579 80.7587Z" fill="#040404"/>
<path d="M32.2938 88.2925C31.5311 89.8902 30.2252 91.2354 30.2774 93.2118C30.1503 93.478 30.1503 93.478 29.7516 93.6181C29.4799 93.4918 29.2083 93.3656 29.3354 93.0993C29.0291 91.6554 29.393 90.1978 30.1731 89.2589C30.4273 88.7264 31.0802 88.0538 31.6061 87.6475C31.7332 87.3812 32.259 86.9749 32.8022 87.2274C33.3454 87.4799 32.8196 87.8862 32.6925 88.1525C32.4209 88.0263 32.2938 88.2925 32.2938 88.2925Z" fill="#040404"/>
<path d="M46.3795 95.1394C46.1093 95.0128 45.9656 94.6196 46.0922 94.353C46.8688 93.4132 47.9157 92.6 48.6924 91.6602C48.819 91.3936 49.0892 91.5202 49.3595 91.6468C49.6297 91.7733 49.5031 92.0399 49.3765 92.3065C48.5999 93.2464 47.8233 94.1862 46.903 94.7328C46.6498 95.266 46.3795 95.1394 46.3795 95.1394Z" fill="#040404"/>
<path d="M66.8154 63.0574C66.8508 64.3736 66.3407 65.4378 65.958 66.236C65.3381 68.2244 64.4453 70.0868 63.5525 71.9492C63.4249 72.2153 63.1699 72.7474 62.6243 72.4955C62.0787 72.2435 62.6066 71.8374 62.4613 71.4454C63.2089 69.1909 64.2292 67.0625 64.9767 64.808C65.3594 64.0099 65.8872 63.6037 66.8154 63.0574Z" fill="#040404"/>
<path d="M64.8774 75.2445C65.515 73.9142 65.8798 72.4578 66.645 70.8614C67.0275 70.0632 67.2825 69.531 68.2105 68.9848C68.3381 68.7187 68.7383 68.5786 69.011 68.7046C69.2838 68.8306 69.1562 69.0966 69.0287 69.3627C67.5906 70.9733 67.0983 72.6957 66.4784 74.6841C66.2233 75.2163 65.9683 75.7484 65.568 75.8885C65.1678 76.0286 65.1678 76.0286 64.8951 75.9026C64.2221 75.9168 64.3496 75.6507 64.8774 75.2445Z" fill="#040404"/>
<path d="M59.9321 59.7131C59.5675 61.1697 58.803 62.7665 58.4384 64.2231C58.311 64.4893 58.3286 65.1476 57.6563 65.1616C57.1115 64.9095 57.6387 64.5033 57.4937 64.1111C57.8231 61.3379 58.8424 59.2089 59.9891 56.8138C60.1165 56.5476 60.3713 56.0154 60.7888 56.5336C61.3336 56.7857 61.2062 57.0518 60.9514 57.5841C60.6966 58.1163 60.3143 58.9147 59.9321 59.7131Z" fill="#040404"/>
<path d="M71.1316 78.5847C70.6212 79.6488 70.1107 80.7129 69.6002 81.777C69.4726 82.043 69.2174 82.575 68.6714 82.3232C68.1254 82.0714 68.6536 81.6653 68.7812 81.3992C69.4016 79.4112 70.1495 77.1571 71.5888 75.5467C71.7164 75.2807 72.0993 74.4826 72.5177 75.0004C73.0637 75.2522 72.5354 75.6584 72.2802 76.1904C71.8973 76.9885 71.5145 77.7866 71.1316 78.5847Z" fill="#040404"/>
<path d="M68.7866 78.7495C68.6596 79.0158 68.4054 79.5483 67.8624 79.2958C67.5909 79.1695 67.845 78.6369 67.7006 78.2444C68.3186 76.254 69.0637 73.9974 69.4102 71.8808C69.6644 71.3482 69.7914 71.0819 70.3345 71.3345C70.8775 71.587 70.3518 71.9933 70.4963 72.3859C70.1498 74.5025 69.4047 76.7591 68.7866 78.7495Z" fill="#040404"/>
<path d="M62.5739 67.8688C62.3193 68.4012 62.1921 68.6674 61.92 68.5412C61.6479 68.4151 61.3759 68.2889 61.5031 68.0228C61.85 65.9072 62.4688 63.9177 63.4871 61.7882C63.6144 61.522 64.141 61.1158 64.4131 61.2419C64.9572 61.4942 64.4306 61.9004 64.3033 62.1666C63.6844 64.1561 63.0655 66.1455 62.5739 67.8688Z" fill="#040404"/>
<path d="M51.3248 47.0155C50.8151 48.08 50.1781 49.4106 50.2133 50.7272C50.0859 50.9933 50.2309 51.3855 49.831 51.5256C49.4312 51.6656 49.4136 51.0073 49.541 50.7412C49.6156 48.5002 50.5075 46.6374 51.6718 44.9006C51.7992 44.6345 52.199 44.4944 52.4714 44.6204C52.7439 44.7465 52.6165 45.0126 52.4891 45.2787C51.8344 45.9511 51.5796 46.4833 51.3248 47.0155Z" fill="#040404"/>
<path d="M60.837 66.0412C60.7099 66.3075 60.5829 66.5738 60.1843 66.7139C59.9129 66.5876 59.7684 66.195 59.7684 66.195C60.1149 64.0783 60.4614 61.9616 61.3508 60.0974C61.4779 59.8311 61.6049 59.5648 61.8764 59.6911C62.4193 59.9437 62.1652 60.4763 62.0382 60.7426C61.5299 61.8078 61.2931 62.9993 61.0564 64.1908C61.0737 64.8497 61.0911 65.5086 60.837 66.0412Z" fill="#040404"/>
<path d="M55.3969 54.8825C55.0145 55.6809 54.6322 56.4792 53.8498 57.4176C53.7224 57.6837 53.5949 57.9498 53.3224 57.8238C53.0499 57.6977 53.1773 57.4316 53.3048 57.1655C53.7969 55.4429 54.8342 53.9723 55.1989 52.5157C55.3263 52.2496 55.5989 52.3756 55.7263 52.1095C55.9989 52.2356 56.144 52.6277 56.0165 52.8938C56.0341 53.552 55.3792 54.2243 55.3969 54.8825Z" fill="#040404"/>
<path d="M52.9113 49.1126C53.0386 48.8465 53.4381 48.7064 53.5655 48.4402L53.965 48.3002C54.2373 48.4263 54.1099 48.6924 54.1099 48.6924C53.4908 50.6817 52.7268 52.2786 52.1077 54.2679C51.9803 54.534 51.9803 54.534 51.5808 54.6741C51.3086 54.548 51.0364 54.4219 51.1637 54.1557C51.2735 53.2311 51.6555 52.4326 51.6379 51.7742C52.1473 50.7096 52.8015 50.0372 52.9113 49.1126Z" fill="#040404"/>
<path d="M44.9769 45.2571C45.341 43.7997 45.8498 42.7347 46.4857 41.4036C46.6129 41.1373 46.8673 40.6049 47.2663 40.4648C47.6653 40.3248 47.6653 40.3248 47.9371 40.451C48.2089 40.5772 48.0817 40.8434 47.9545 41.1097C47.3186 42.4408 46.5555 44.0382 46.1913 45.4956C45.538 46.1681 45.2487 45.3833 44.9769 45.2571Z" fill="#040404"/>
<path d="M73.5382 81.7212C72.7564 82.6597 72.2469 83.7242 71.7374 84.7888C71.61 85.0549 71.3552 85.5872 71.0829 85.4611C70.5383 85.209 70.6657 84.9429 70.9204 84.4106C71.4299 83.346 72.0668 82.0153 72.5763 80.9508C72.831 80.4185 73.0857 79.8862 73.6304 80.1384C74.32 80.7827 73.7929 81.1889 73.5382 81.7212Z" fill="#040404"/>
<path d="M47.8441 44.0299C48.2257 43.2312 48.4801 42.6988 49.1335 42.0263C49.5325 41.8862 49.6597 41.62 49.8044 42.0124C50.0762 42.1386 49.949 42.4048 49.8218 42.6711C48.914 43.876 48.0062 45.081 48.1857 46.7907C48.0585 47.057 47.9313 47.3232 47.6595 47.197C47.2604 47.337 47.1158 46.9446 47.243 46.6784C46.9537 45.8935 47.4625 44.8286 47.8441 44.0299Z" fill="#040404"/>
<path d="M57.4068 57.5011C57.0245 58.2993 56.7696 58.8315 56.5147 59.3636C56.3873 59.6297 56.2599 59.8958 55.9871 59.7697C55.7144 59.6435 55.8418 59.3774 55.9692 59.1114C56.2062 57.9209 56.8434 56.5906 57.4805 55.2602C57.6079 54.9941 57.7354 54.728 58.0081 54.8542C58.2809 54.9803 58.1535 55.2464 58.2988 55.6386C58.3167 56.2969 57.6616 56.9689 57.4068 57.5011Z" fill="#040404"/>
<path d="M70.4094 52.3394C71.1738 50.7426 71.6658 49.0198 72.5576 47.1569C72.685 46.8908 72.9398 46.3585 73.4846 46.6106C74.0294 46.8627 73.7746 47.395 73.6472 47.6611C73.0102 48.9918 72.6456 50.4484 71.6088 51.9192C71.354 52.4514 70.9542 52.5915 70.4094 52.3394Z" fill="#040404"/>
<path d="M74.1143 52.1474C73.8599 52.6799 73.4783 53.4786 73.2239 54.011C73.0967 54.2772 72.9695 54.5435 72.4258 54.2911C72.1539 54.1649 72.2811 53.8987 72.1365 53.5063C72.7725 52.1751 73.1366 50.7178 73.7727 49.3867C73.8999 49.1205 74.1543 48.588 74.698 48.8404C74.9699 48.9666 74.9873 49.6252 74.8601 49.8914C74.7504 50.8163 74.496 51.3488 74.1143 52.1474Z" fill="#040404"/>
<path d="M89.624 79.0226C89.4967 79.2887 89.3694 79.5548 89.2421 79.8209C89.1148 80.0871 88.8602 80.6193 88.4426 80.1008C87.8978 79.8484 88.4248 79.4423 88.5522 79.1762C89.0614 78.1117 89.2982 76.921 89.6802 76.1226C89.9348 75.5904 90.1894 75.0581 90.4618 75.1843C91.0067 75.4367 90.752 75.969 90.4974 76.5012C90.1155 77.2996 89.7336 78.098 89.624 79.0226Z" fill="#040404"/>
<path d="M70.1874 44.6668C69.807 45.4661 69.4265 46.2655 68.7753 46.9384C68.6485 47.2048 68.5217 47.4713 67.98 47.2184C67.7092 47.0919 67.836 46.8255 67.692 46.4326C68.1993 45.3668 68.3089 44.441 68.8161 43.3752C69.0698 42.8423 69.4674 42.7023 69.7382 42.8287C70.2798 43.0816 70.0262 43.6145 69.7726 44.1474C70.3142 44.4003 70.1874 44.6668 70.1874 44.6668Z" fill="#040404"/>
<path d="M87.8259 84.7319C88.4635 83.4016 89.101 82.0714 89.7385 80.7412C89.866 80.4752 89.9935 80.2091 90.2665 80.3352C90.5394 80.4613 90.6849 80.8534 90.5574 81.1194C89.9198 82.4497 89.4098 83.5138 88.4994 84.718C88.6448 85.1101 88.2264 84.5919 87.8259 84.7319Z" fill="#040404"/>
<path d="M81.5907 69.8887C81.9546 68.4311 82.4457 66.7072 82.8096 65.2495C82.9367 64.9832 83.0638 64.717 83.4625 64.5769C83.7341 64.7032 83.8786 65.0957 83.7515 65.362C83.3876 66.8197 83.0236 68.2773 82.3881 69.6087C82.4055 70.2675 81.8623 70.015 81.5907 69.8887Z" fill="#040404"/>
<path d="M81.0167 65.6631C80.8896 65.9294 80.7624 66.1957 80.3637 66.3357C80.2366 66.602 79.965 66.4757 79.965 66.4757C79.6935 66.3494 79.6935 66.3494 79.8206 66.0832C80.1845 64.6255 80.6929 63.5604 81.0568 62.1028C81.184 61.8365 81.7098 61.4302 81.9814 61.5565C82.5245 61.809 81.9987 62.2153 81.8716 62.4815C81.6348 63.6729 81.5251 64.598 81.0167 65.6631Z" fill="#040404"/>
<path d="M86.0097 68.7726C86.5512 69.0255 86.6952 69.4184 86.8392 69.8114C86.476 71.2701 85.9688 72.336 85.8764 73.9212C85.7496 74.1877 85.8935 74.5806 85.2252 74.5941C84.9544 74.4677 84.8105 74.0747 84.9373 73.8083C84.7589 72.0966 85.5197 70.4978 86.0097 68.7726Z" fill="#040404"/>
<path d="M84.2698 66.2859C84.8114 66.5388 85.2263 67.0581 84.9726 67.591C84.7362 68.7833 84.3558 69.5826 84.1193 70.7749C83.9925 71.0414 83.8657 71.3078 83.5949 71.1813C83.0533 70.9284 83.4509 70.7884 83.3069 70.3955C83.5433 69.2033 83.9066 67.7446 84.2698 66.2859Z" fill="#040404"/>
<path d="M107.009 85.8099C106.882 86.0761 106.899 86.7345 106.355 86.4823C105.81 86.2301 106.065 85.6978 106.192 85.4317C106.412 83.5827 107.176 81.9858 108.068 80.1228C108.195 79.8566 108.45 79.3243 108.994 79.5765C109.539 79.8287 109.012 80.2349 108.884 80.501C108.393 82.224 107.901 83.9469 107.009 85.8099Z" fill="#040404"/>
<path d="M104.15 78.8454C103.624 79.2517 103.659 80.5691 102.844 80.1904C102.029 79.8118 102.809 78.873 103.063 78.3405C103.572 77.2755 103.809 76.0843 104.046 74.8931C104.173 74.6269 104.3 74.3606 104.427 74.0944C104.554 73.8281 104.953 73.6881 105.225 73.8143C105.497 73.9405 105.37 74.2068 105.243 74.473C105.006 75.6642 104.913 77.2479 104.15 78.8454Z" fill="#040404"/>
<path d="M90.72 61.1979C90.8123 59.6142 91.8471 58.143 92.2111 56.6856C92.3383 56.4193 92.6101 56.5455 92.6101 56.5455C92.8819 56.6717 93.1536 56.7979 93.0264 57.0642C92.6624 58.5216 92.2983 59.979 91.3907 61.184C91.2635 61.4503 90.9917 61.3241 90.72 61.1979Z" fill="#040404"/>
</g>
</svg>
